<svg width="151" height="90" viewBox="0 0 151 90" fill="none" xmlns="http://www.w3.org/2000/svg">
<g clip-path="url(#clip0_7_4012)">
<path opacity="0.5" fill-rule="evenodd" clip-rule="evenodd" d="M75.1611 86.5445C94.9775 86.5447 111.042 85.1901 111.042 83.5189C111.042 81.8477 94.9776 80.4928 75.1611 80.4926C55.3447 80.4924 39.2803 81.847 39.2802 83.5182C39.2802 85.1894 55.3446 86.5443 75.1611 86.5445ZM75.5526 85.6497C91.754 85.6498 104.888 84.6461 104.888 83.4078C104.888 82.1694 91.7541 81.1654 75.5526 81.1653C59.3512 81.1651 46.2173 82.1688 46.2173 83.4072C46.2173 84.6455 59.3512 85.6495 75.5526 85.6497Z" fill="url(#paint0_radial_7_4012)"/>
<path opacity="0.5" fill-rule="evenodd" clip-rule="evenodd" d="M75.8024 89.9993C103.522 89.9996 125.993 87.3418 125.993 84.0629C125.993 80.7841 103.522 78.1258 75.8025 78.1255C48.083 78.1252 25.6118 80.783 25.6118 84.0619C25.6117 87.3408 48.0828 89.999 75.8024 89.9993ZM75.5886 87.8447C99.4156 87.845 118.731 86.0065 118.731 83.7385C118.731 81.4704 99.4156 79.6316 75.5887 79.6313C51.7618 79.6311 32.4462 81.4695 32.4462 83.7376C32.4462 86.0056 51.7617 87.8445 75.5886 87.8447Z" fill="url(#paint1_radial_7_4012)"/>
<path d="M3.29318 21.5172C2.08874 20.0211 2.82958 17.8039 4.7057 17.3927C15.1261 15.1085 44.4488 9.3442 74.9898 9.34452C105.348 9.34484 135.285 13.9801 146.185 15.8614C148.147 16.1999 148.966 18.5084 147.701 20.0457L96.3857 82.438C95.929 82.9932 95.2609 83.3377 94.5438 83.3888C79.0827 84.4908 69.8667 84.5236 54.1792 83.3906C53.4537 83.3382 52.779 82.9854 52.3228 82.4188L3.29318 21.5172Z" fill="url(#paint2_linear_7_4012)"/>
<g opacity="0.3" filter="url(#filter0_f_7_4012)">
<ellipse cx="75.1642" cy="82.2793" rx="18.3942" ry="0.983419" fill="#728EFE"/>
</g>
<path fill-rule="evenodd" clip-rule="evenodd" d="M59.7821 46.0965C58.3261 45.9249 57.0066 46.9661 56.835 48.4221L55.3708 60.8427C55.1992 62.2988 56.2404 63.6182 57.6964 63.7899L60.6301 64.1357L60.7846 62.8251C60.9979 61.0156 62.6378 59.7215 64.4474 59.9348C66.257 60.1481 67.5511 61.788 67.3377 63.5976L67.1833 64.9082L70.1171 65.254C71.5731 65.4256 72.8926 64.3844 73.0642 62.9284L73.5259 59.0119L75.8194 59.2823C77.0861 59.4316 78.234 58.5257 78.3834 57.259C78.5327 55.9923 77.6268 54.8444 76.3601 54.6951L74.0666 54.4247L74.5284 50.5078C74.7 49.0517 73.6588 47.7323 72.2028 47.5606L59.7821 46.0965ZM65.4516 51.4158C67.2612 51.6291 68.9011 50.3351 69.1144 48.5255L69.2689 47.2149L62.7158 46.4424L62.5613 47.753C62.348 49.5626 63.6421 51.2025 65.4516 51.4158Z" fill="url(#paint3_linear_7_4012)"/>
<path fill-rule="evenodd" clip-rule="evenodd" d="M61.1411 64.7832L57.6282 64.3691C55.8522 64.1598 54.5822 62.5504 54.7916 60.7745L56.2557 48.3538C56.4651 46.5779 58.0744 45.3079 59.8504 45.5172L72.271 46.9814C74.047 47.1907 75.317 48.8001 75.1076 50.576L74.7142 53.9137L76.4284 54.1158C78.015 54.3028 79.1496 55.7407 78.9626 57.3273C78.7756 58.9139 77.3377 60.0485 75.7511 59.8615L74.0369 59.6594L73.6435 62.9967C73.4341 64.7726 71.8248 66.0426 70.0488 65.8333L66.5357 65.4191L66.7585 63.5293C66.9341 62.0397 65.8688 60.6897 64.3791 60.5141C62.8895 60.3385 61.5395 61.4038 61.3639 62.8934L61.1411 64.7832ZM73.5259 59.0119L75.8194 59.2823C77.0861 59.4316 78.234 58.5257 78.3834 57.259C78.5327 55.9923 77.6268 54.8444 76.3601 54.6951L74.0666 54.4247L74.5284 50.5078C74.7 49.0517 73.6588 47.7323 72.2028 47.5606L59.7821 46.0965C58.3261 45.9249 57.0066 46.9661 56.835 48.4221L55.3708 60.8427C55.1992 62.2988 56.2404 63.6182 57.6964 63.7899L60.6301 64.1357L60.7846 62.8251C60.9979 61.0156 62.6378 59.7215 64.4474 59.9348C66.257 60.1481 67.5511 61.788 67.3377 63.5976L67.1833 64.9082L70.1171 65.254C71.5731 65.4256 72.8926 64.3844 73.0642 62.9284L73.5259 59.0119ZM69.2689 47.2149L62.7158 46.4424L62.5613 47.753C62.348 49.5626 63.6421 51.2025 65.4516 51.4158C67.2612 51.6291 68.9011 50.3351 69.1144 48.5255L69.2689 47.2149ZM68.6214 47.7259L68.5352 48.4572C68.3596 49.9469 67.0096 51.0122 65.5199 50.8366C64.0302 50.661 62.965 49.311 63.1406 47.8213L63.2268 47.09L68.6214 47.7259Z" fill="url(#paint4_linear_7_4012)"/>
<path fill-rule="evenodd" clip-rule="evenodd" d="M90.9458 49.1916L87.4427 48.7787L87.221 50.6589C87.0448 52.154 85.6899 53.2231 84.1948 53.0469C82.6997 52.8706 81.6305 51.5157 81.8068 50.0206L82.0284 48.1405L78.5251 47.7275C76.7546 47.5188 75.1501 48.7849 74.9414 50.5554L74.5285 54.0589L76.4086 54.2805C77.9037 54.4568 78.9728 55.8116 78.7966 57.3067C78.6204 58.8018 77.2655 59.871 75.7704 59.6947L73.8902 59.4731L73.4773 62.9761C73.2686 64.7466 74.5347 66.3511 76.3052 66.5598L79.6524 66.9543L79.4492 68.6788C79.2628 70.26 80.3935 71.6929 81.9747 71.8793C83.5559 72.0657 84.9888 70.935 85.1752 69.3538L85.3785 67.6293L88.7259 68.0239C90.4964 68.2326 92.1009 66.9665 92.3096 65.196L93.7737 52.7753C93.9824 51.0048 92.7163 49.4003 90.9458 49.1916ZM80.2889 66.4531L80.0186 68.7459C79.9913 68.9774 79.9993 69.205 80.0382 69.4232C79.9994 69.2054 79.9916 68.9782 80.0188 68.7471L80.2892 66.4532L80.2889 66.4531ZM93.1833 51.939C92.9865 50.8132 92.0719 49.9017 90.8787 49.7611L87.945 49.4152L87.7905 50.726C87.5771 52.5356 85.9373 53.8296 84.1277 53.6163C82.6487 53.442 81.5142 52.3148 81.2654 50.9208C81.5137 52.3153 82.6485 53.4431 84.1279 53.6175C85.9375 53.8308 87.5773 52.5367 87.7907 50.7271L87.9452 49.4164L90.8789 49.7622C92.0717 49.9028 92.986 50.8137 93.1833 51.939ZM81.3917 48.6439L81.3919 48.6428L78.458 48.2969C77.002 48.1253 75.6825 49.1665 75.5109 50.6225L75.165 53.5566L75.1654 53.5566L75.5111 50.6237C75.6827 49.1677 77.0022 48.1265 78.4582 48.2981L81.3917 48.6439ZM79.3382 56.4077C79.3937 56.719 79.405 57.0436 79.366 57.3739C79.1527 59.1835 77.5128 60.4775 75.7032 60.2642L74.3925 60.1097L74.0468 63.0432C74.0154 63.3093 74.0245 63.5708 74.0693 63.8216C74.0247 63.5712 74.0156 63.31 74.047 63.0443L74.3928 60.1108L75.7035 60.2653C77.513 60.4786 79.1529 59.1846 79.3662 57.375C79.4052 57.0443 79.3939 56.7193 79.3382 56.4077Z" fill="url(#paint5_linear_7_4012)"/>
<path fill-rule="evenodd" clip-rule="evenodd" d="M75.8447 44.3205L76.2589 40.8071L74.3689 40.5843C72.8792 40.4087 71.814 39.0587 71.9896 37.569C72.1652 36.0794 73.5151 35.0141 75.0048 35.1897L76.8948 35.4125L77.3088 31.8998C77.5182 30.1239 76.2482 28.5145 74.4723 28.3052L71.1347 27.9117L71.3368 26.1973C71.5238 24.6107 70.3892 23.1728 68.8026 22.9858C67.216 22.7988 65.7781 23.9334 65.5911 25.52L65.389 27.2344L62.0516 26.841C60.2757 26.6317 58.6663 27.9017 58.4569 29.6776L58.0442 33.1786L56.3299 32.9765C54.7433 32.7895 53.3054 33.9241 53.1184 35.5107C52.9314 37.0974 54.066 38.5352 55.6526 38.7222L57.3669 38.9243L56.9928 42.0982C56.7835 43.8742 58.0534 45.4836 59.8294 45.6929L63.1669 46.0863L62.9648 47.8005C62.7778 49.3872 63.9124 50.825 65.499 51.012C67.0856 51.199 68.5235 50.0644 68.7105 48.4778L68.9126 46.7636L72.25 47.157C74.026 47.3664 75.6354 46.0964 75.8447 44.3205ZM76.7296 31.8315C76.7296 31.8315 76.7296 31.8315 76.7296 31.8315Z" fill="url(#paint6_linear_7_4012)"/>
<path fill-rule="evenodd" clip-rule="evenodd" d="M102.485 29.7068L99.0144 28.0242L98.1233 29.869C97.3833 31.4008 95.5461 32.0405 94.0203 31.3008C92.494 30.5609 91.8543 28.7192 92.5945 27.1868L93.485 25.3435L90.0152 23.6613C88.2624 22.8115 86.1547 23.5478 85.307 25.3027L83.5772 28.8835L81.8001 28.022C80.2373 27.2643 78.3583 27.9208 77.6027 29.4852C76.8473 31.049 77.4988 32.9311 79.061 33.6885L80.8396 34.5508L79.2683 37.8036C78.4208 39.5579 79.1519 41.6693 80.9041 42.5188L84.3124 44.1711L83.4506 45.9551C82.6952 47.5189 83.3468 49.4011 84.909 50.1584C86.4718 50.9161 88.3507 50.2596 89.1064 48.6953L89.9675 46.9127L93.3741 48.5643C95.1269 49.4141 97.2346 48.6778 98.0823 46.9229L104.121 34.422C104.968 32.6676 104.237 30.5563 102.485 29.7068Z" fill="url(#paint7_linear_7_4012)"/>
<path d="M90.4899 37.78C91.6052 38.3328 92.9859 37.8196 93.5736 36.6338C94.1613 35.448 93.7335 34.0386 92.6182 33.4858C91.5028 32.933 90.1222 33.4461 89.5345 34.632C88.9468 35.8178 89.3745 37.2272 90.4899 37.78Z" fill="#A4B7FF"/>
<path fill-rule="evenodd" clip-rule="evenodd" d="M86.4532 40.208C86.2569 40.1085 86.0889 39.961 85.9648 39.7791C85.8408 39.5972 85.7649 39.387 85.744 39.1678C85.7231 38.9487 85.758 38.7278 85.8454 38.5258C85.9328 38.3238 86.0699 38.1471 86.2439 38.0124C87.5138 37.0529 89.2424 36.771 90.7092 37.498C92.1973 38.2355 93.0412 39.8454 92.9621 41.5009C92.953 41.7049 92.8935 41.9034 92.7889 42.0787C92.6842 42.254 92.5377 42.4006 92.3624 42.5053C92.1872 42.61 91.9887 42.6696 91.7847 42.6787C91.5808 42.6879 91.3777 42.6462 91.1938 42.5576L86.4532 40.208Z" fill="#A4B7FF"/>
<path fill-rule="evenodd" clip-rule="evenodd" d="M90.104 36.5303L91.6771 37.3099L90.5814 39.5208L89.0082 38.7411L90.104 36.5303Z" fill="#A4B7FF"/>
<path d="M79.295 19.1814C79.2272 18.7057 78.7866 18.3749 78.3109 18.4427C77.8352 18.5105 77.5045 18.9511 77.5722 19.4268L78.0205 22.5737C78.0883 23.0494 78.5289 23.3801 79.0046 23.3124C79.4803 23.2446 79.8111 22.804 79.7433 22.3283L79.295 19.1814Z" fill="#F8E6A0"/>
<path d="M84.9112 20.1641C84.5269 19.8757 83.9815 19.9534 83.6931 20.3377L81.7849 22.8798C81.4964 23.2641 81.5741 23.8095 81.9584 24.098C82.3427 24.3865 82.8881 24.3088 83.1766 23.9245L85.0848 21.3823C85.3733 20.998 85.2956 20.4526 84.9112 20.1641Z" fill="#F8E6A0"/>
<path d="M73.5341 21.6702C73.1497 21.3817 72.6044 21.4594 72.3159 21.8437C72.0274 22.2281 72.1051 22.7734 72.4894 23.0619L75.0316 24.9701C75.4159 25.2586 75.9613 25.1809 76.2498 24.7966C76.5382 24.4123 76.4605 23.8669 76.0762 23.5784L73.5341 21.6702Z" fill="#F8E6A0"/>
</g>
<defs>
<filter id="filter0_f_7_4012" x="56.0626" y="80.5884" width="38.203" height="3.38173" filterUnits="userSpaceOnUse" color-interpolation-filters="sRGB">
<feFlood flood-opacity="0" result="BackgroundImageFix"/>
<feBlend mode="normal" in="SourceGraphic" in2="BackgroundImageFix" result="shape"/>
<feGaussianBlur stdDeviation="0.353734" result="effect1_foregroundBlur_7_4012"/>
</filter>
<radialGradient id="paint0_radial_7_4012" cx="0" cy="0" r="1" gradientUnits="userSpaceOnUse" gradientTransform="translate(75.1405 82.8534) rotate(90.0006) scale(5.88205 69.7471)">
<stop stop-color="#B9C7FF"/>
<stop offset="1" stop-color="#B9C7FF" stop-opacity="0.66"/>
</radialGradient>
<radialGradient id="paint1_radial_7_4012" cx="0" cy="0" r="1" gradientUnits="userSpaceOnUse" gradientTransform="translate(75.5879 84.2139) rotate(90.0006) scale(7.46569 63.1151)">
<stop stop-color="#B9C7FF"/>
<stop offset="1" stop-color="#B9C7FF" stop-opacity="0.36"/>
</radialGradient>
<linearGradient id="paint2_linear_7_4012" x1="76.8115" y1="93.4771" x2="76.8123" y2="16.6595" gradientUnits="userSpaceOnUse">
<stop stop-color="#A5B6FF" stop-opacity="0.62"/>
<stop offset="1" stop-color="white" stop-opacity="0"/>
</linearGradient>
<linearGradient id="paint3_linear_7_4012" x1="73.151" y1="48.1956" x2="63.429" y2="59.0156" gradientUnits="userSpaceOnUse">
<stop stop-color="#90A3FF"/>
<stop offset="1" stop-color="#859DFF"/>
</linearGradient>
<linearGradient id="paint4_linear_7_4012" x1="73.151" y1="48.1956" x2="63.429" y2="59.0156" gradientUnits="userSpaceOnUse">
<stop stop-color="#90A3FF"/>
<stop offset="1" stop-color="#859DFF"/>
</linearGradient>
<linearGradient id="paint5_linear_7_4012" x1="84.7355" y1="48.4596" x2="81.9748" y2="71.8793" gradientUnits="userSpaceOnUse">
<stop stop-color="#BDCBFF"/>
<stop offset="1" stop-color="#A6B8FF"/>
</linearGradient>
<linearGradient id="paint6_linear_7_4012" x1="50.3863" y1="35.3059" x2="72.0319" y2="30.8186" gradientUnits="userSpaceOnUse">
<stop stop-color="#9FB3FF"/>
<stop offset="1" stop-color="#BECCFF"/>
</linearGradient>
<linearGradient id="paint7_linear_7_4012" x1="88.8746" y1="46.1778" x2="102.11" y2="29.437" gradientUnits="userSpaceOnUse">
<stop stop-color="#6483FE"/>
<stop offset="1" stop-color="#A6B8FF"/>
</linearGradient>
<clipPath id="clip0_7_4012">
<rect width="151" height="90" fill="white"/>
</clipPath>
</defs>
</svg>
