<svg width="142" height="90" viewBox="0 0 142 90" fill="none" xmlns="http://www.w3.org/2000/svg">
<path opacity="0.5" fill-rule="evenodd" clip-rule="evenodd" d="M72.1954 86.5448C90.4993 86.5451 105.338 85.1905 105.338 83.5193C105.338 81.8481 90.4993 80.4932 72.1954 80.493C53.8915 80.4927 39.0532 81.8473 39.0532 83.5185C39.0532 85.1897 53.8914 86.5446 72.1954 86.5448ZM72.557 85.65C87.5218 85.6502 99.6532 84.6465 99.6532 83.4082C99.6533 82.1698 87.5219 81.1658 72.557 81.1657C57.5922 81.1655 45.4608 82.1692 45.4608 83.4075C45.4608 84.6458 57.5922 85.6498 72.557 85.65Z" fill="url(#paint0_radial_16_1766)"/>
<path opacity="0.5" fill-rule="evenodd" clip-rule="evenodd" d="M72.7874 89.9991C98.3912 89.9994 119.147 87.3416 119.147 84.0628C119.147 80.7839 98.3913 78.1257 72.7875 78.1254C47.1837 78.1251 26.4277 80.7829 26.4277 84.0617C26.4276 87.3406 47.1836 89.9988 72.7874 89.9991ZM72.59 87.8445C94.5982 87.8448 112.44 86.0064 112.44 83.7383C112.44 81.4703 94.5983 79.6314 72.59 79.6312C50.5818 79.631 32.7405 81.4694 32.7405 83.7374C32.7405 86.0055 50.5817 87.8443 72.59 87.8445Z" fill="url(#paint1_radial_16_1766)"/>
<path d="M6.94074 23.0339C5.25529 20.7673 6.39253 17.5492 9.14619 16.9203C20.1685 14.4031 45.6089 9.34404 72.0369 9.34434C98.2364 9.34463 124.097 13.3912 135.592 15.4571C138.481 15.9763 139.74 19.3326 137.965 21.6699L92.2229 81.8809C91.5334 82.7884 90.4862 83.3599 89.3497 83.4458C75.7629 84.4728 67.3539 84.5027 53.5717 83.449C52.4228 83.3611 51.3663 82.7766 50.6787 81.8519L6.94074 23.0339Z" fill="url(#paint2_linear_16_1766)"/>
<g opacity="0.3" filter="url(#filter0_f_16_1766)">
<ellipse cx="72.198" cy="82.2791" rx="16.9902" ry="0.983417" fill="#728EFE"/>
</g>
<path d="M64.0873 63.3058C67.2838 56.8185 69.6461 56.7667 72.4985 58.1705C75.3509 59.5744 77.3516 61.4281 74.4168 68.3894C73.9644 69.4624 73.241 70.3132 72.3668 70.8961C71.89 71.2139 70.3652 71.8361 70.6704 74.9199C69.1257 74.1598 68.6019 72.3205 68.6019 72.3205C67.8542 74.0942 64.7351 77.1781 61.8958 77.1329C63.8896 74.869 64.2947 72.6756 64.3507 71.3099C64.3507 71.3099 63.3155 71.2999 61.8544 70.5812C63.8746 68.871 63.7446 67.276 63.6452 66.3333C63.5391 65.3265 63.6745 64.2848 64.0873 63.3058Z" fill="#F8E6A0"/>
<path d="M66.1346 62.8814C67.5555 59.511 69.9507 58.7288 71.7335 59.6062C73.5162 60.4836 74.3922 62.7416 72.747 66.6441C72.4497 67.3493 71.6061 68.3515 71.0483 68.7428C70.7442 68.9562 69.7757 69.3817 69.9334 71.3875C68.968 70.9124 68.6584 69.7206 68.6584 69.7206C68.167 70.8863 66.1656 72.9371 64.3758 72.945C65.6585 71.4434 65.9385 70.0086 65.9892 69.1179C65.9892 69.1179 65.3366 69.1249 64.4234 68.6757C65.7165 67.5347 65.6525 66.4969 65.6004 65.8839C65.5448 65.2291 65.8633 63.5249 66.1346 62.8814Z" fill="#FFF0B5"/>
<path d="M67.0906 55.4138L77.9054 60.7363L77.1159 64.2368C76.9012 65.1888 75.9061 65.6722 75.0394 65.2456L65.8229 60.7097C64.9561 60.2831 64.6406 59.1547 65.1644 58.3548L67.0906 55.4138Z" fill="#8493FF"/>
<path fill-rule="evenodd" clip-rule="evenodd" d="M67.8153 39.8496L64.7622 49.9902C63.4485 49.9439 60.4675 50.9014 59.052 55.1021L58.3216 56.8346C58.1001 57.3601 57.5057 57.5819 56.994 57.3301L56.6755 57.1734C56.2251 56.9517 55.9802 56.4296 56.095 55.9359L58.0222 47.6508C58.7431 44.5517 60.9324 42.1058 63.8382 41.1533L67.8153 39.8496ZM88.2406 49.9018L83.1633 59.0462C84.0579 60.0866 85.3458 63.1452 83.3415 67.0561L82.6111 68.7886C82.3896 69.3141 82.6248 69.9443 83.1365 70.1961L83.455 70.3528C83.9054 70.5745 84.4307 70.4314 84.7001 70.0138L89.2206 63.005C90.9115 60.3833 91.1825 56.9933 89.9405 53.9995L88.2406 49.9018Z" fill="url(#paint3_linear_16_1766)"/>
<path d="M85.8356 17.2418C88.3654 15.2305 92.1276 17.082 92.3835 20.4644L92.8574 26.7272L81.1512 20.966L85.8356 17.2418Z" fill="url(#paint4_linear_16_1766)"/>
<path d="M65.2381 55.3859L79.4236 62.3673C80.0266 62.664 80.7279 62.5268 81.1454 62.0137C81.7233 61.3036 82.6053 60.1838 83.609 58.7856L64.9922 49.6233C64.6746 51.3592 64.4715 52.8132 64.355 53.7502C64.2707 54.4274 64.6352 55.0891 65.2381 55.3859Z" fill="url(#paint5_linear_16_1766)"/>
<path fill-rule="evenodd" clip-rule="evenodd" d="M67.9999 38.6202C72.3585 28.2818 81.2349 20.7671 81.2349 20.7671L92.9411 26.5283C92.9411 26.5283 93.5196 38.6963 89.1612 49.0347C87.629 52.669 85.3745 56.1779 83.5305 58.7469L64.9137 49.5847C64.3511 52.6591 64.1481 54.8494 64.1481 54.8494L80.3566 62.8264C80.3566 62.8265 80.3566 62.8265 80.3566 62.8265L64.148 54.8494C64.148 54.8494 64.351 52.6591 64.9136 49.5846C65.4972 46.3953 66.4677 42.2544 67.9999 38.6202Z" fill="url(#paint6_linear_16_1766)"/>
<ellipse cx="4.89504" cy="5.14977" rx="4.89504" ry="5.14977" transform="matrix(0.897226 0.441571 -0.388474 0.921459 77.7919 32.7806)" fill="#DEE5FF"/>
<defs>
<filter id="filter0_f_16_1766" x="54.1308" y="80.2188" width="36.1342" height="4.1207" filterUnits="userSpaceOnUse" color-interpolation-filters="sRGB">
<feFlood flood-opacity="0" result="BackgroundImageFix"/>
<feBlend mode="normal" in="SourceGraphic" in2="BackgroundImageFix" result="shape"/>
<feGaussianBlur stdDeviation="0.538462" result="effect1_foregroundBlur_16_1766"/>
</filter>
<radialGradient id="paint0_radial_16_1766" cx="0" cy="0" r="1" gradientUnits="userSpaceOnUse" gradientTransform="translate(72.1764 82.8538) rotate(90.0005) scale(5.88198 64.4235)">
<stop stop-color="#B9C7FF"/>
<stop offset="1" stop-color="#B9C7FF" stop-opacity="0.66"/>
</radialGradient>
<radialGradient id="paint1_radial_16_1766" cx="0" cy="0" r="1" gradientUnits="userSpaceOnUse" gradientTransform="translate(72.5893 84.2138) rotate(90.0006) scale(7.46564 58.2977)">
<stop stop-color="#B9C7FF"/>
<stop offset="1" stop-color="#B9C7FF" stop-opacity="0.36"/>
</radialGradient>
<linearGradient id="paint2_linear_16_1766" x1="73.7196" y1="93.4769" x2="73.7204" y2="16.6593" gradientUnits="userSpaceOnUse">
<stop stop-color="#A5B6FF" stop-opacity="0.62"/>
<stop offset="1" stop-color="white" stop-opacity="0"/>
</linearGradient>
<linearGradient id="paint3_linear_16_1766" x1="75.2753" y1="59.9502" x2="32.0212" y2="76.2634" gradientUnits="userSpaceOnUse">
<stop stop-color="#7E8CFF"/>
<stop offset="1" stop-color="#A5B8FF"/>
</linearGradient>
<linearGradient id="paint4_linear_16_1766" x1="93.0323" y1="26.4742" x2="75.6251" y2="18.5403" gradientUnits="userSpaceOnUse">
<stop stop-color="#7E8CFF"/>
<stop offset="1" stop-color="#A5B8FF"/>
</linearGradient>
<linearGradient id="paint5_linear_16_1766" x1="83.6952" y1="71.4616" x2="68.8799" y2="40.8485" gradientUnits="userSpaceOnUse">
<stop stop-color="#7E8CFF"/>
<stop offset="1" stop-color="#C2CEFF"/>
</linearGradient>
<linearGradient id="paint6_linear_16_1766" x1="75.3453" y1="32.4014" x2="89.5767" y2="46.0808" gradientUnits="userSpaceOnUse">
<stop stop-color="#D8E0FF"/>
<stop offset="1" stop-color="#B7C6FF"/>
</linearGradient>
</defs>
</svg>
