<svg width="142" height="90" viewBox="0 0 142 90" fill="none" xmlns="http://www.w3.org/2000/svg">
<path opacity="0.5" fill-rule="evenodd" clip-rule="evenodd" d="M71.3429 89.4392C96.9399 89.4395 117.691 86.9803 117.691 83.9463C117.691 80.9124 96.9401 78.4527 71.343 78.4525C45.7459 78.4522 24.9953 80.9115 24.9953 83.9454C24.9953 86.9793 45.7458 89.439 71.3429 89.4392ZM71.1455 87.4456C93.148 87.4458 110.985 85.7447 110.985 83.6461C110.985 81.5475 93.1481 79.846 71.1456 79.8458C49.143 79.8456 31.3065 81.5467 31.3064 83.6453C31.3064 85.7439 49.143 87.4454 71.1455 87.4456Z" fill="url(#paint0_radial_4_2)"/>
<path opacity="0.5" fill-rule="evenodd" clip-rule="evenodd" d="M71.1335 86.6002C89.4326 86.6004 104.267 85.347 104.267 83.8006C104.267 82.2543 89.4327 81.0005 71.1335 81.0003C52.8344 81.0002 38 82.2536 38 83.7999C38 85.3463 52.8344 86.6 71.1335 86.6002ZM71.495 85.7722C86.4559 85.7723 98.5842 84.8436 98.5842 83.6978C98.5842 82.552 86.456 81.623 71.4951 81.6228C56.5342 81.6226 44.4059 82.5514 44.4059 83.6972C44.4059 84.843 56.5341 85.772 71.495 85.7722Z" fill="url(#paint1_radial_4_2)"/>
<path d="M4.37896 26.0646C3.26906 24.6832 3.95307 22.6382 5.68386 22.258C15.3009 20.1454 42.384 14.8094 70.5926 14.8097C98.632 14.81 126.283 19.1009 136.343 20.8409C138.153 21.1539 138.909 23.2832 137.744 24.7028L90.3643 82.4255C89.9344 82.9493 89.3013 83.2699 88.6247 83.3079C74.1214 84.1233 65.6164 84.1364 51.3982 83.3103C50.7147 83.2706 50.0769 82.9424 49.648 82.4086L4.37896 26.0646Z" fill="url(#paint2_linear_4_2)"/>
<path d="M58.3922 51.008C58.7571 49.2949 60.4415 48.2019 62.1546 48.5667L68.5267 49.9238C70.2398 50.2886 71.3328 51.9731 70.968 53.6862L70.6556 55.1529C69.9161 58.6256 66.5013 60.8412 63.0287 60.1017C59.556 59.3621 57.3403 55.9474 58.0799 52.4747L58.3922 51.008Z" fill="url(#paint3_linear_4_2)"/>
<path fill-rule="evenodd" clip-rule="evenodd" d="M72.5383 15.4479C65.1585 13.8763 57.9907 17.2683 55.9981 23.2753L52.3305 34.3321C51.63 36.4438 50.2439 38.3081 48.3239 39.7208L40.742 45.2992C39.4517 46.2486 40.0956 48.125 41.8391 48.4963C41.8391 48.4963 55.1622 53.6507 64.0016 55.5331C72.8409 57.4156 87.1081 58.137 87.1081 58.137C88.8516 58.5083 90.2042 57.0571 89.4127 55.6644L84.7616 47.4807C83.5838 45.4084 83.0776 43.141 83.2983 40.9272L84.454 29.3354C85.0819 23.0378 79.9181 17.0195 72.5383 15.4479Z" fill="url(#paint4_linear_4_2)"/>
<path d="M87.1081 58.137C87.1081 58.137 72.8409 57.4156 64.0016 55.5331L72.5383 15.4479C79.9181 17.0195 85.0819 23.0378 84.454 29.3354L83.2983 40.9272C83.0776 43.141 83.5838 45.4084 84.7616 47.4807L89.4127 55.6644C90.2042 57.0571 88.8516 58.5083 87.1081 58.137Z" fill="url(#paint5_linear_4_2)"/>
<path d="M94.7002 37.0318C95.2441 37.5124 96.0791 37.4638 96.5176 36.8854C97.695 35.3323 98.607 33.5912 99.2132 31.7324C99.9555 29.4565 100.224 27.0526 100.001 24.6691C99.7784 22.2855 99.0697 19.9729 97.9188 17.8738C96.9788 16.1595 95.7601 14.6173 94.3155 13.3091C93.7774 12.8219 92.9479 12.9288 92.5024 13.5019C92.0569 14.0749 92.1648 14.8966 92.6964 15.3908C93.8609 16.4737 94.8467 17.7382 95.614 19.1375C96.5923 20.9217 97.1946 22.8875 97.3838 24.9135C97.5731 26.9395 97.3452 28.9828 96.7142 30.9174C96.2194 32.4346 95.4848 33.8597 94.541 35.1395C94.1102 35.7237 94.1562 36.5511 94.7002 37.0318Z" fill="#42BE65"/>
<path d="M89.9057 32.2733C90.4717 32.632 91.2274 32.4661 91.5278 31.8672C92.5457 29.8376 92.9774 27.555 92.7608 25.2786C92.5442 23.0023 91.6898 20.842 90.3074 19.0409C89.8994 18.5093 89.1261 18.4889 88.6379 18.9479C88.1497 19.4069 88.1331 20.171 88.5277 20.7126C89.5482 22.1134 90.1795 23.7685 90.3451 25.5085C90.5106 27.2484 90.2027 28.993 89.4648 30.5611C89.1794 31.1674 89.3397 31.9146 89.9057 32.2733Z" fill="#42BE65"/>
<defs>
<radialGradient id="paint0_radial_4_2" cx="0" cy="0" r="1" gradientUnits="userSpaceOnUse" gradientTransform="translate(71.1448 84.086) rotate(90.0006) scale(6.90797 58.2825)">
<stop stop-color="#B9C7FF"/>
<stop offset="1" stop-color="#B9C7FF" stop-opacity="0.36"/>
</radialGradient>
<radialGradient id="paint1_radial_4_2" cx="0" cy="0" r="1" gradientUnits="userSpaceOnUse" gradientTransform="translate(71.1145 83.1848) rotate(90.0006) scale(5.44263 64.4066)">
<stop stop-color="#B9C7FF"/>
<stop offset="1" stop-color="#B9C7FF" stop-opacity="0.66"/>
</radialGradient>
<linearGradient id="paint2_linear_4_2" x1="72.2747" y1="92.6572" x2="72.2755" y2="21.5783" gradientUnits="userSpaceOnUse">
<stop stop-color="#A5B6FF" stop-opacity="0.62"/>
<stop offset="1" stop-color="white" stop-opacity="0"/>
</linearGradient>
<linearGradient id="paint3_linear_4_2" x1="60.5006" y1="-32.1339" x2="65.7388" y2="68.5692" gradientUnits="userSpaceOnUse">
<stop stop-color="#BDCAFF"/>
<stop offset="1" stop-color="#6281FD"/>
</linearGradient>
<linearGradient id="paint4_linear_4_2" x1="62.9707" y1="15.3521" x2="65.3037" y2="60.2043" gradientUnits="userSpaceOnUse">
<stop stop-color="#B6C5FF"/>
<stop offset="1" stop-color="#92A8FF"/>
</linearGradient>
<linearGradient id="paint5_linear_4_2" x1="48.8734" y1="6.38522" x2="65.9298" y2="87.0879" gradientUnits="userSpaceOnUse">
<stop stop-color="#BDCAFF"/>
<stop offset="1" stop-color="#6281FD"/>
</linearGradient>
</defs>
</svg>
